<?xml version="1.0" encoding="UTF-8" standalone="no"?>
<!-- Generator: Adobe Illustrator 16.0.0, SVG Export Plug-In . SVG Version: 6.00 Build 0)  -->

<svg
   xmlns:dc="http://purl.org/dc/elements/1.1/"
   xmlns:cc="http://creativecommons.org/ns#"
   xmlns:rdf="http://www.w3.org/1999/02/22-rdf-syntax-ns#"
   xmlns:svg="http://www.w3.org/2000/svg"
   xmlns="http://www.w3.org/2000/svg"
   xmlns:sodipodi="http://sodipodi.sourceforge.net/DTD/sodipodi-0.dtd"
   xmlns:inkscape="http://www.inkscape.org/namespaces/inkscape"
   version="1.1"
   id="Capa_1"
   x="0px"
   y="0px"
   width="110"
   height="110"
   viewBox="0 0 110 110"
   xml:space="preserve"
   sodipodi:docname="money-icon.svg"
   inkscape:version="0.92.2 (5c3e80d, 2017-08-06)"><metadata
     id="metadata5162"><rdf:RDF><cc:Work
         rdf:about=""><dc:format>image/svg+xml</dc:format><dc:type
           rdf:resource="http://purl.org/dc/dcmitype/StillImage" /><dc:title></dc:title></cc:Work></rdf:RDF></metadata><defs
     id="defs5160" /><sodipodi:namedview
     pagecolor="#ffffff"
     bordercolor="#666666"
     borderopacity="1"
     objecttolerance="10"
     gridtolerance="10"
     guidetolerance="10"
     inkscape:pageopacity="0"
     inkscape:pageshadow="2"
     inkscape:window-width="1366"
     inkscape:window-height="705"
     id="namedview5158"
     showgrid="false"
     inkscape:zoom="2.7512861"
     inkscape:cx="32.094158"
     inkscape:cy="63.583065"
     inkscape:window-x="1272"
     inkscape:window-y="147"
     inkscape:window-maximized="1"
     inkscape:current-layer="Capa_1" /><g
     id="g5125"
     style="fill:#333333;fill-opacity:1"
     transform="matrix(0.22669421,0,0,0.22669421,0.96173072,8.4467426e-4)"><g
       id="g5123"
       style="fill:#333333;fill-opacity:1"><path
         d="m 212.282,257.789 v 30.322 c 0,12.209 8.352,14.99 15.164,15.168 h 15.164 v -60.653 h -15.164 c -6.812,0.177 -15.164,2.963 -15.164,15.163 z"
         id="path5117"
         style="fill:#333333;fill-opacity:1"
         inkscape:connector-curvature="0" /><path
         d="m 272.931,394.255 h 15.178 c 6.818,-0.178 15.168,-2.964 15.168,-15.164 v -30.326 c 0,-12.2 -8.35,-14.986 -15.168,-15.163 h -15.178 z"
         id="path5119"
         style="fill:#333333;fill-opacity:1"
         inkscape:connector-curvature="0" /><path
         d="m 327.209,151.65 h 6.39 c 16.76,0 30.331,-13.567 30.331,-30.329 0,-15.576 -11.91,-27.953 -27.073,-29.673 l 23.872,-47.742 c 7.462,-14.984 1.419,-33.167 -13.567,-40.69 -14.981,-7.46 -33.169,-1.421 -40.688,13.567 l -4.271,8.468 C 299.72,11.035 287.875,0.021 272.931,0.021 c -16.745,0 -30.326,13.591 -30.326,30.322 0,-16.731 -13.577,-30.322 -30.322,-30.322 -14.944,0 -26.789,11.015 -29.288,25.23 l -4.238,-8.468 C 171.25,1.827 153.095,-4.305 138.067,3.216 123.081,10.739 117.009,28.922 124.5,43.906 l 23.873,47.742 c -15.149,1.72 -27.067,14.097 -27.067,29.673 0,16.762 13.562,30.329 30.324,30.329 h 6.382 C 82.894996,206.438 30.329,322.554 30.329,396.299 c 0,99.185 95.034,88.609 212.28,88.609 117.228,0 212.296,10.575 212.296,-88.609 0,-73.745 -52.593,-189.861 -127.696,-244.649 z m -39.101,151.629 c 18.309,0 45.49,12.111 45.49,45.485 v 30.326 c 0,33.375 -27.186,45.485 -45.49,45.485 H 272.93 v 15.168 c 0,8.35 -6.809,15.164 -15.158,15.164 -8.349,0 -15.163,-6.814 -15.163,-15.164 v -15.168 h -45.49 c -8.352,0 -15.164,-6.809 -15.164,-15.158 0,-8.354 6.812,-15.163 15.164,-15.163 h 45.49 v -60.653 h -15.166 c -18.3,0 -45.488,-12.111 -45.488,-45.49 v -30.322 c 0,-33.376 27.188,-45.49 45.488,-45.49 h 15.166 v -15.161 c 0,-8.352 6.813,-15.166 15.163,-15.166 8.35,0 15.158,6.813 15.158,15.166 v 15.161 h 45.509 c 8.35,0 15.159,6.814 15.159,15.164 0,8.352 -6.81,15.164 -15.159,15.164 H 272.93 v 60.653 h 15.178 z"
         id="path5121"
         style="fill:#333333;fill-opacity:1"
         inkscape:connector-curvature="0" /></g></g><g
     id="g5127"
     transform="translate(0,-375.23401)" /><g
     id="g5129"
     transform="translate(0,-375.23401)" /><g
     id="g5131"
     transform="translate(0,-375.23401)" /><g
     id="g5133"
     transform="translate(0,-375.23401)" /><g
     id="g5135"
     transform="translate(0,-375.23401)" /><g
     id="g5137"
     transform="translate(0,-375.23401)" /><g
     id="g5139"
     transform="translate(0,-375.23401)" /><g
     id="g5141"
     transform="translate(0,-375.23401)" /><g
     id="g5143"
     transform="translate(0,-375.23401)" /><g
     id="g5145"
     transform="translate(0,-375.23401)" /><g
     id="g5147"
     transform="translate(0,-375.23401)" /><g
     id="g5149"
     transform="translate(0,-375.23401)" /><g
     id="g5151"
     transform="translate(0,-375.23401)" /><g
     id="g5153"
     transform="translate(0,-375.23401)" /><g
     id="g5155"
     transform="translate(0,-375.23401)" /></svg>