<?xml version="1.0" encoding="UTF-8" standalone="no"?>
<!-- Generator: Adobe Illustrator 16.0.0, SVG Export Plug-In . SVG Version: 6.00 Build 0)  -->

<svg
   xmlns:dc="http://purl.org/dc/elements/1.1/"
   xmlns:cc="http://creativecommons.org/ns#"
   xmlns:rdf="http://www.w3.org/1999/02/22-rdf-syntax-ns#"
   xmlns:svg="http://www.w3.org/2000/svg"
   xmlns="http://www.w3.org/2000/svg"
   xmlns:sodipodi="http://sodipodi.sourceforge.net/DTD/sodipodi-0.dtd"
   xmlns:inkscape="http://www.inkscape.org/namespaces/inkscape"
   version="1.1"
   id="Capa_1"
   x="0px"
   y="0px"
   width="416.566px"
   height="416.566px"
   viewBox="0 0 416.566 416.566"
   style="enable-background:new 0 0 416.566 416.566;"
   xml:space="preserve"
   sodipodi:docname="pencil-icon.svg"
   inkscape:version="0.92.2 (5c3e80d, 2017-08-06)"><metadata
     id="metadata5805"><rdf:RDF><cc:Work
         rdf:about=""><dc:format>image/svg+xml</dc:format><dc:type
           rdf:resource="http://purl.org/dc/dcmitype/StillImage" /></cc:Work></rdf:RDF></metadata><defs
     id="defs5803" /><sodipodi:namedview
     pagecolor="#ffffff"
     bordercolor="#666666"
     borderopacity="1"
     objecttolerance="10"
     gridtolerance="10"
     guidetolerance="10"
     inkscape:pageopacity="0"
     inkscape:pageshadow="2"
     inkscape:window-width="1280"
     inkscape:window-height="961"
     id="namedview5801"
     showgrid="false"
     inkscape:zoom="0.56653686"
     inkscape:cx="208.283"
     inkscape:cy="208.283"
     inkscape:window-x="-8"
     inkscape:window-y="-8"
     inkscape:window-maximized="1"
     inkscape:current-layer="g5768" /><g
     id="g5768"><g
       id="g5763"
       style="fill:#d81d28;fill-opacity:1"><path
         d="m 189.706,33.474 133.065,61.978 c 1.83,0.853 4.023,0.052 4.877,-1.777 l 12.333,-26.481 c 0.854,-1.828 0.053,-4.023 -1.775,-4.875 L 205.138,0.341 c -1.83,-0.852 -4.025,-0.052 -4.877,1.778 l -12.333,26.479 c -0.853,1.83 -0.052,4.025 1.778,4.876 z"
         id="path5757"
         inkscape:connector-curvature="0"
         style="fill:#d81d28;fill-opacity:1" /><path
         d="m 212.617,341.084 104.688,-224.77 c 0.854,-1.83 0.053,-4.024 -1.776,-4.877 L 182.464,49.461 c -1.83,-0.853 -4.025,-0.053 -4.877,1.777 L 72.898,276.008 c -0.854,1.83 -1.182,4.938 -0.729,6.904 l 26.386,115.203 c 0.449,1.967 3.289,2.822 5.085,1.901 l 104.163,-53.933 c 1.794,-0.919 3.964,-3.169 4.814,-4.999 z m -38.814,-0.071 c -1.767,0.979 -4.681,2.529 -6.478,3.449 0,0 -29.139,14.943 -39.939,20.483 -5.418,2.777 -16.37,-1.618 -17.73,-7.553 -2.754,-12.028 -10.201,-44.544 -10.201,-44.544 -0.451,-1.967 -1.139,-5.195 -1.528,-7.178 0,0 -1.517,-7.715 -1.218,-8.356 0.301,-0.646 7.176,2.13 7.176,2.13 1.872,0.756 4.898,2.068 6.729,2.922 l 57.557,26.809 c 1.829,0.854 4.785,2.324 6.567,3.271 0,0 6.547,3.478 6.247,4.122 -0.3,0.644 -7.182,4.445 -7.182,4.445 z"
         id="path5759"
         inkscape:connector-curvature="0"
         style="fill:#d81d28;fill-opacity:1" /><path
         d="M 337.601,399.679 H 150.896 c -3.85,0 -7,3.148 -7,7 v 2.888 c 0,3.85 3.15,7 7,7 H 337.6 c 3.852,0 7,-3.15 7,-7 v -2.888 c 10e-4,-3.852 -3.15,-7 -6.999,-7 z"
         id="path5761"
         inkscape:connector-curvature="0"
         style="fill:#d81d28;fill-opacity:1" /></g></g><g
     id="g5770" /><g
     id="g5772" /><g
     id="g5774" /><g
     id="g5776" /><g
     id="g5778" /><g
     id="g5780" /><g
     id="g5782" /><g
     id="g5784" /><g
     id="g5786" /><g
     id="g5788" /><g
     id="g5790" /><g
     id="g5792" /><g
     id="g5794" /><g
     id="g5796" /><g
     id="g5798" /></svg>