<?xml version="1.0" encoding="UTF-8" standalone="no"?>
<!-- Generator: Adobe Illustrator 16.0.0, SVG Export Plug-In . SVG Version: 6.00 Build 0)  -->

<svg
   xmlns:dc="http://purl.org/dc/elements/1.1/"
   xmlns:cc="http://creativecommons.org/ns#"
   xmlns:rdf="http://www.w3.org/1999/02/22-rdf-syntax-ns#"
   xmlns:svg="http://www.w3.org/2000/svg"
   xmlns="http://www.w3.org/2000/svg"
   xmlns:sodipodi="http://sodipodi.sourceforge.net/DTD/sodipodi-0.dtd"
   xmlns:inkscape="http://www.inkscape.org/namespaces/inkscape"
   version="1.1"
   id="Capa_1"
   x="0px"
   y="0px"
   width="512.5px"
   height="512.5px"
   viewBox="0 0 512.5 512.5"
   style="enable-background:new 0 0 512.5 512.5;"
   xml:space="preserve"
   sodipodi:docname="quote-icon.svg"
   inkscape:version="0.92.2 (5c3e80d, 2017-08-06)"><metadata
     id="metadata4584"><rdf:RDF><cc:Work
         rdf:about=""><dc:format>image/svg+xml</dc:format><dc:type
           rdf:resource="http://purl.org/dc/dcmitype/StillImage" /></cc:Work></rdf:RDF></metadata><defs
     id="defs4582" /><sodipodi:namedview
     pagecolor="#ffffff"
     bordercolor="#666666"
     borderopacity="1"
     objecttolerance="10"
     gridtolerance="10"
     guidetolerance="10"
     inkscape:pageopacity="0"
     inkscape:pageshadow="2"
     inkscape:window-width="1680"
     inkscape:window-height="987"
     id="namedview4580"
     showgrid="false"
     inkscape:zoom="1.5960976"
     inkscape:cx="256.25"
     inkscape:cy="256.25"
     inkscape:window-x="1358"
     inkscape:window-y="-8"
     inkscape:window-maximized="1"
     inkscape:current-layer="Capa_1" /><g
     id="g4547"><path
       d="M112.5,208.25c61.856,0,112,50.145,112,112s-50.144,112-112,112s-112-50.145-112-112l-0.5-16   c0-123.712,100.288-224,224-224v64c-42.737,0-82.917,16.643-113.137,46.863c-5.817,5.818-11.126,12.008-15.915,18.51   C100.667,208.723,106.528,208.25,112.5,208.25z M400.5,208.25c61.855,0,112,50.145,112,112s-50.145,112-112,112   s-112-50.145-112-112l-0.5-16c0-123.712,100.287-224,224-224v64c-42.736,0-82.918,16.643-113.137,46.863   c-5.818,5.818-11.127,12.008-15.916,18.51C388.666,208.723,394.527,208.25,400.5,208.25z"
       id="path4545" /></g><g
     id="g4549" /><g
     id="g4551" /><g
     id="g4553" /><g
     id="g4555" /><g
     id="g4557" /><g
     id="g4559" /><g
     id="g4561" /><g
     id="g4563" /><g
     id="g4565" /><g
     id="g4567" /><g
     id="g4569" /><g
     id="g4571" /><g
     id="g4573" /><g
     id="g4575" /><g
     id="g4577" /><path
     style="fill:#000000;fill-opacity:0;stroke:#d81d28;stroke-width:0;stroke-miterlimit:4;stroke-dasharray:none;stroke-opacity:1"
     d="M 101.18429,431.36103 C 63.395367,427.39465 29.713698,404.11988 12.879944,370.34077 6.2716755,357.08042 2.686481,344.65119 1.2781334,330.11935 0.24719617,319.48176 0.39408794,291.76994 1.5384887,281.00208 8.5405951,215.11807 43.632938,156.53369 98.452528,119.21041 130.77577,97.203496 167.39492,84.386719 207.0019,81.217905 c 4.44356,-0.355514 10.01183,-0.646389 12.37393,-0.646389 h 4.29471 v 31.559164 31.55917 l -7.67497,0.45188 c -47.51692,2.79769 -90.46339,25.20818 -118.747204,61.96511 l -2.859261,3.71583 3.710857,-0.38837 c 23.321248,-2.44079 43.078398,0.78309 62.636938,10.2208 32.47768,15.67167 55.34494,45.76569 61.78458,81.3104 1.88706,10.41596 1.88706,28.09008 0,38.50604 -5.45417,30.10528 -22.72627,56.52831 -48.0334,73.48199 -21.69347,14.53284 -47.78846,21.08561 -73.30379,18.4075 z"
     id="path4586"
     inkscape:connector-curvature="0" /><path
     style="fill:#000000;fill-opacity:0;stroke:#d81d28;stroke-width:0;stroke-miterlimit:4;stroke-dasharray:none;stroke-opacity:1"
     d="m 389.14107,431.33763 c -34.08944,-3.56336 -65.14808,-22.94999 -83.36549,-52.03629 -7.30321,-11.66045 -13.01451,-26.54793 -15.33514,-39.97371 -1.33123,-7.70165 -2.46074,-33.01005 -1.95734,-43.85697 2.60528,-56.13643 24.26422,-106.76443 62.6769,-146.50789 40.15231,-41.54334 93.61213,-65.605121 151.47218,-68.176241 l 9.24129,-0.410654 v 31.652325 31.65232 l -7.3617,0.43043 c -10.51292,0.61467 -23.42038,2.58588 -32.95888,5.03344 -27.69861,7.10739 -54.40036,22.67196 -74.35416,43.34138 -6.10304,6.32193 -14.62341,16.4995 -14.18222,16.94068 0.13483,0.13484 4.22136,-0.088 9.08116,-0.49516 31.17243,-2.61177 62.48043,8.65145 85.54618,30.77569 40.67876,39.01831 45.97556,102.09396 12.36426,147.23679 -4.61462,6.19782 -13.56517,15.4553 -19.79876,20.47767 -22.52468,18.14802 -52.27799,26.92563 -81.06828,23.91619 z"
     id="path4588"
     inkscape:connector-curvature="0" /></svg>